<svg xmlns="http://www.w3.org/2000/svg" viewBox="0 0 128 128" width="128" height="128">
  <rect width="128" height="128" rx="22" fill="#0D1117"/>
  <!-- Left panel: state tree -->
  <rect x="14" y="30" width="42" height="68" rx="6" fill="none" stroke="#4ECDC4" stroke-width="2"/>
  <!-- State tree rows inside left panel -->
  <rect x="20" y="40" width="28" height="3" rx="1.5" fill="#4ECDC4" opacity="0.9"/>
  <rect x="24" y="48" width="20" height="2.5" rx="1.25" fill="#4ECDC4" opacity="0.6"/>
  <rect x="24" y="54" width="22" height="2.5" rx="1.25" fill="#4ECDC4" opacity="0.6"/>
  <rect x="24" y="60" width="16" height="2.5" rx="1.25" fill="#4ECDC4" opacity="0.6"/>
  <rect x="20" y="68" width="26" height="3" rx="1.5" fill="#4ECDC4" opacity="0.9"/>
  <rect x="24" y="76" width="18" height="2.5" rx="1.25" fill="#4ECDC4" opacity="0.6"/>
  <!-- Divider -->
  <line x1="62" y1="30" x2="62" y2="98" stroke="#4ECDC4" stroke-width="1.5" opacity="0.3"/>
  <!-- Right panel: chat -->
  <rect x="72" y="30" width="42" height="68" rx="6" fill="none" stroke="#4ECDC4" stroke-width="2"/>
  <!-- Chat bubbles -->
  <rect x="78" y="40" width="28" height="8" rx="4" fill="#4ECDC4" opacity="0.7"/>
  <rect x="82" y="54" width="24" height="8" rx="4" fill="none" stroke="#4ECDC4" stroke-width="1.5" opacity="0.6"/>
  <rect x="78" y="68" width="20" height="8" rx="4" fill="#4ECDC4" opacity="0.7"/>
  <!-- Spark/AI indicator -->
  <polygon points="64,56 66.2,62 72,62 67.4,65.8 69.1,72 64,68.2 58.9,72 60.6,65.8 56,62 61.8,62" fill="#4ECDC4" opacity="0.95" transform="translate(0,-1)"/>
</svg>